<svg width="22" height="22" viewBox="0 0 22 22" fill="none" xmlns="http://www.w3.org/2000/svg">
<path d="M9.32084 2.17289H4.80381C3.47236 2.17289 2.80662 2.17289 2.29807 2.4294C1.85073 2.65503 1.48704 3.01505 1.25912 3.45786C1 3.96129 1 4.6203 1 5.93831V17.2346C1 18.5526 1 19.2117 1.25912 19.7151C1.48704 20.1578 1.85073 20.5179 2.29807 20.7435C2.80662 21 3.47236 21 4.80381 21H16.2152C17.5467 21 18.2125 21 18.721 20.7435C19.1683 20.5179 19.5321 20.1578 19.7599 19.7151C20.0191 19.2117 20.0191 18.5526 20.0191 17.2346V12.1748M14.67 3.93793L18.032 7.26613M9.03876 9.51229L16.9415 1.68929C17.8699 0.770236 19.3753 0.770236 20.3036 1.68929C21.2321 2.60835 21.2321 4.09843 20.3036 5.01749L12.1468 13.0919C11.2415 13.9882 10.7889 14.4363 10.2732 14.7926C9.81557 15.109 9.32191 15.3709 8.80257 15.5733C8.21738 15.8014 7.58984 15.9267 6.33476 16.1774L5.75477 16.2932L5.81117 15.9023C6.01076 14.5194 6.11056 13.8278 6.33757 13.1822C6.539 12.6092 6.81419 12.0645 7.1563 11.5613C7.54186 10.9941 8.04084 10.5001 9.03876 9.51229Z" stroke="#888888" stroke-width="2" stroke-linecap="round" stroke-linejoin="round"/>
</svg>
