<svg width="500" height="547" viewBox="0 0 500 547" fill="none" xmlns="http://www.w3.org/2000/svg">
<circle cx="250" cy="250" r="247.5" fill="#1E1E1E" stroke="#F7A600" stroke-width="5"/>
<path d="M374.04 188.749C399.072 177.083 425.237 202.578 414.223 227.904L306.706 475.152C302.28 485.329 292.569 492.205 281.5 493V493L274 494L266.5 494.5L252 495L236.5 494.707L218 493L194 489L164.506 480.207L142.006 470.707L124.506 460.707L107.506 449.707L92.5065 438.207L79.0065 426.207L66.0065 411.707L59.5065 404.207L54.0065 397.207L49.0065 390.207L44.0065 382.207L34.5076 366.707L30.5076 358.707L28.5076 354.707L27.5076 352.707V352.707C26.9599 351.611 27.4243 350.28 28.5346 349.762L374.04 188.749Z" fill="#8E8E8E"/>
<path d="M261.5 52L264.122 61.7383C264.442 62.9267 264.602 63.5208 264.918 64.0066C265.197 64.4364 265.564 64.8028 265.994 65.0823C266.479 65.398 267.073 65.5581 268.262 65.878L278 68.5L268.262 71.122C267.073 71.4419 266.479 71.602 265.994 71.9177C265.564 72.1971 265.197 72.5636 264.918 72.9935C264.602 73.4792 264.442 74.0733 264.122 75.2617L261.5 85L258.878 75.2617C258.558 74.0733 258.398 73.4792 258.082 72.9935C257.803 72.5636 257.436 72.1971 257.007 71.9177C256.521 71.602 255.927 71.4419 254.738 71.122L245 68.5L254.738 65.878C255.927 65.5581 256.521 65.398 257.007 65.0823C257.436 64.8028 257.803 64.4364 258.082 64.0066C258.398 63.5208 258.558 62.9267 258.878 61.7383L261.5 52Z" stroke="#F7A600" stroke-width="2" stroke-linecap="round" stroke-linejoin="round"/>
<path d="M325 103L328.814 117.165C329.279 118.893 329.512 119.758 329.971 120.464C330.378 121.089 330.911 121.622 331.536 122.029C332.242 122.488 333.107 122.721 334.835 123.186L349 127L334.835 130.814C333.107 131.279 332.242 131.512 331.536 131.971C330.911 132.378 330.378 132.911 329.971 133.536C329.512 134.242 329.279 135.107 328.814 136.835L325 151L321.186 136.835C320.721 135.107 320.488 134.242 320.029 133.536C319.622 132.911 319.089 132.378 318.464 131.971C317.758 131.512 316.893 131.279 315.165 130.814L301 127L315.165 123.186C316.893 122.721 317.758 122.488 318.464 122.029C319.089 121.622 319.622 121.089 320.029 120.464C320.488 119.758 320.721 118.893 321.186 117.165L325 103Z" stroke="#F7A600" stroke-width="2" stroke-linecap="round" stroke-linejoin="round"/>
<path d="M196 83L199.496 95.9844C199.923 97.5689 200.136 98.3611 200.557 99.0088C200.929 99.5819 201.418 100.07 201.991 100.443C202.639 100.864 203.431 101.077 205.016 101.504L218 105L205.016 108.496C203.431 108.923 202.639 109.136 201.991 109.557C201.418 109.929 200.929 110.418 200.557 110.991C200.136 111.639 199.923 112.431 199.496 114.016L196 127L192.504 114.016C192.077 112.431 191.864 111.639 191.443 110.991C191.07 110.418 190.582 109.929 190.009 109.557C189.361 109.136 188.569 108.923 186.984 108.496L174 105L186.984 101.504C188.569 101.077 189.361 100.864 190.009 100.443C190.582 100.07 191.07 99.5819 191.443 99.0088C191.864 98.3611 192.077 97.5689 192.504 95.9844L196 83Z" stroke="#F7A600" stroke-width="2" stroke-linecap="round" stroke-linejoin="round"/>
<path fill-rule="evenodd" clip-rule="evenodd" d="M127.571 259.71L149.029 235.29C152.119 231.774 153.664 230.015 154.397 227.899C155.13 225.783 154.976 223.524 154.668 219.007L154.521 216.848C154.048 209.901 153.811 206.428 151.429 204.487C149.048 202.546 145.451 202.897 138.258 203.597L136.023 203.815C131.345 204.271 129.006 204.499 126.96 205.545C124.914 206.591 123.369 208.349 120.279 211.866L98.8217 236.286C95.2108 240.395 92.9718 242.943 92.1961 245.269C91.951 246.004 91.8519 246.717 91.9018 247.449C92.1098 250.501 94.8203 252.71 100.241 257.127L100.97 257.721L108.442 249.068C109.507 247.834 111.372 247.639 112.606 248.632C113.84 249.625 113.977 251.431 112.912 252.665L105.417 261.344L105.991 261.812C111.413 266.229 114.123 268.437 117.283 268.129C117.981 268.061 118.641 267.876 119.297 267.571C121.61 266.495 123.87 263.923 127.571 259.71ZM136.587 232.609C133.804 235.777 128.973 236.247 125.797 233.66C122.622 231.072 122.304 226.407 125.087 223.239C127.871 220.071 132.702 219.601 135.877 222.188C139.053 224.776 139.371 229.441 136.587 232.609Z" fill="#F7A600"/>
<g opacity="0.5">
<path d="M103.61 222.153L94.277 232.775C92.5615 234.727 90.9878 236.518 89.7577 238.118C88.9677 239.145 88.1844 240.262 87.5391 241.475L87.4353 241.39C87.2384 241.23 87.1398 241.149 87.0411 241.071C85.1935 239.608 83.0626 238.51 80.7623 237.834C80.6394 237.798 80.5148 237.763 80.2655 237.694L78.7391 237.268C76.6714 236.69 75.9631 234.23 77.3956 232.6C81.5066 227.921 86.4426 222.304 88.9226 221.031C91.1098 219.908 93.5185 219.371 95.8842 219.478C98.0519 219.576 100.155 220.446 103.61 222.153Z" fill="#F7A600"/>
<path d="M124.129 271.293C124.988 272.006 125.561 272.513 126.085 273.064C126.776 273.79 127.404 274.571 127.96 275.401C128.587 276.334 129.093 277.348 130.106 279.374C130.93 281.024 133.311 281.25 134.586 279.799L134.894 279.448C139.005 274.769 143.941 269.152 144.834 266.586C145.623 264.323 145.774 261.946 145.272 259.718C144.813 257.675 143.574 255.822 141.255 252.825L131.891 263.482C130.136 265.478 128.527 267.309 127.059 268.764C126.179 269.635 125.211 270.515 124.129 271.293Z" fill="#F7A600"/>
</g>
</svg>
