<svg width="20" height="20" viewBox="0 0 20 20" fill="none" xmlns="http://www.w3.org/2000/svg">
<path d="M0 16.2408C0 17.2826 0.366068 18.1697 1.0982 18.9018C1.83034 19.6339 2.71735 20 3.75924 20H16.2619C17.2897 20 18.1697 19.6339 18.9018 18.9018C19.6339 18.1697 20 17.2826 20 16.2408V10.8342L17.5079 12.925V16.2408C17.5079 16.5928 17.3882 16.8884 17.1489 17.1278C16.9095 17.3671 16.6139 17.4938 16.2619 17.5079H3.75924C3.40725 17.5079 3.11158 17.3812 2.87223 17.1278C2.63288 16.8743 2.5132 16.5787 2.5132 16.2408V3.73812C2.5132 3.40021 2.63288 3.10454 2.87223 2.85111C3.11158 2.59768 3.40725 2.478 3.75924 2.49208H10.0106V0H3.75924C2.71735 0 1.83034 0.366068 1.0982 1.0982C0.366068 1.83034 0 2.71031 0 3.73812L0 16.2408ZM3.75924 12.5026C3.75924 13.7135 3.99859 14.875 4.4773 15.9873C4.70257 14.692 5.19535 13.5164 5.95565 12.4604C6.71595 11.4044 7.65927 10.5526 8.78564 9.90496C9.912 9.2573 11.151 8.89124 12.5026 8.80676V12.5026L20 6.25132L12.5026 0V3.73812C11.32 3.73812 10.1866 3.97043 9.10243 4.43506C8.0183 4.89968 7.08905 5.52622 6.31468 6.31468C5.5403 7.10313 4.91376 8.03238 4.43506 9.10243C3.95635 10.1725 3.73108 11.3059 3.75924 12.5026Z" fill="#C1C1C1"/>
</svg>
